<svg xmlns="http://www.w3.org/2000/svg" xmlns:xlink="http://www.w3.org/1999/xlink" viewBox="0,0,256,256" width="32px" height="32px" fill-rule="nonzero"><g fill="none" fill-rule="nonzero" stroke="none" stroke-width="1" stroke-linecap="butt" stroke-linejoin="miter" stroke-miterlimit="10" stroke-dasharray="" stroke-dashoffset="0" font-family="none" font-weight="none" font-size="none" text-anchor="none" style="mix-blend-mode: normal"><g transform="scale(5.33333,5.33333)"><path d="M29,31h-10l-2,13h14z" fill="#78909c"></path><path d="M24,37l-5,-6v-6h10v6z" fill="#f8c171"></path><path d="M35,19c0,1.105 -0.896,2 -2,2c-1.106,0 -2,-0.895 -2,-2c0,-1.105 0.894,-2 2,-2c1.104,0 2,0.895 2,2M17,19c0,-1.105 -0.896,-2 -2,-2c-1.106,0 -2,0.895 -2,2c0,1.105 0.894,2 2,2c1.104,0 2,-0.895 2,-2" fill="#fdc571"></path><path d="M33,13c0,-7.635 -18,-4.971 -18,0v7c0,4.971 4.028,9 9,9c4.971,0 9,-4.029 9,-9z" fill="#fdcc83"></path><path d="M27,19c0,-0.551 0.448,-1 1,-1c0.552,0 1,0.449 1,1c0,0.551 -0.448,1 -1,1c-0.552,0 -1,-0.449 -1,-1M19,19c0,0.551 0.448,1 1,1c0.552,0 1,-0.449 1,-1c0,-0.551 -0.448,-1 -1,-1c-0.552,0 -1,0.449 -1,1" fill="#784719"></path><path d="M24,41c-5,-4 -5,-10 -5,-10l5,1l5,-1c0,0 -0.083,6.167 -5,10z" fill="#ffffff"></path><path d="M23,35l-0.667,4.465l1.667,2.535l1.667,-2.535l-0.667,-4.465l1,-1l-2,-2l-2,2z" fill="#d32f2f"></path><path d="M8,44h11v-13c0,0 -11,1.986 -11,13zM29,31v13h11c0,-10.975 -11,-13 -11,-13z" fill="#37474f"></path><path d="M29,31c0,0 -0.083,6.167 -5,10c-5,-4 -5,-10 -5,-10v7.098c0.844,1.529 2.039,3.095 3.751,4.464l1.233,0.987l1.246,-0.971c1.72,-1.341 2.923,-2.917 3.77,-4.468z" fill="#ffc107"></path><path d="M24,43l-0.001,-0.002" fill="#37474f"></path><path d="M28,17c-1.302,0 -2.401,0.839 -2.816,2h-2.369c-0.414,-1.161 -1.514,-2 -2.816,-2c-1.654,0 -3,1.346 -3,3c0,1.654 1.346,3 3,3c1.654,0 3,-1.346 3,-3h2c0,1.654 1.346,3 3,3c1.654,0 3,-1.346 3,-3c0.001,-1.654 -1.345,-3 -2.999,-3zM20,22c-1.104,0 -2,-0.898 -2,-2c0,-1.102 0.896,-2 2,-2c1.104,0 2,0.898 2,2c0,1.102 -0.896,2 -2,2zM28,22c-1.104,0 -2,-0.898 -2,-2c0,-1.102 0.896,-2 2,-2c1.104,0 2,0.898 2,2c0,1.102 -0.896,2 -2,2z" fill="#455a64"></path><path d="M20,16h-1v-3.809l2,1v-2.191h1v3.809l-2,-1z" fill="#d79358"></path><path d="M24,4c6.075,0 10,4.926 10,11v2.285l-2,1.715v-5l-12,-4l-4,4v5l-2,-1.742v-2.258c0,-4.025 1.038,-8.016 6,-9l1,-2z" fill="#424242"></path></g></g></svg>