<svg xmlns="http://www.w3.org/2000/svg" xmlns:xlink="http://www.w3.org/1999/xlink" viewBox="0,0,256,256" width="100px" height="100px" fill-rule="nonzero"><g fill="none" fill-rule="nonzero" stroke="none" stroke-width="none" stroke-linecap="none" stroke-linejoin="none" stroke-miterlimit="10" stroke-dasharray="" stroke-dashoffset="0" font-family="none" font-weight="none" font-size="none" text-anchor="none" style="mix-blend-mode: normal"><g transform="scale(2.56,2.56)"><path d="M65.714,100.024c-2.094,0 -5.812,-0.834 -7.189,-6.418c-0.418,-1.696 -0.979,-3.769 -2.099,-9.89c-0.616,-3.368 -1.387,-7.583 -2.38,-12.929c-2.469,0.003 -4.524,0.032 -6.223,0.055c-1.302,0.018 -2.372,0.032 -3.288,0.032c-3.285,0 -7.374,0 -9.645,-3.782c-0.016,-0.027 -0.031,-0.053 -0.047,-0.08c-1.959,0.01 -3.632,0.034 -5.052,0.055c-1.284,0.019 -2.37,0.034 -3.294,0.034c-3.235,0 -7.262,0 -9.539,-3.757c-2.218,-3.659 -0.369,-7.082 0.736,-9.126c0.05,-0.092 0.101,-0.186 0.152,-0.282c0.04,-4.32 0.041,-6.098 0.038,-7.461c-1.032,-0.781 -1.166,-3.823 -2.324,-4.485c-1.052,-0.601 -3.238,-1.509 -4.382,-2.225c-5.055,-2.819 -5.631,-6.69 -5.545,-8.685c0.008,-0.185 0.017,-0.337 0.017,-0.465c0,-6.745 9.792,-9.751 12.182,-10.381c0,-1.03 0,-2.114 -0.001,-3.257c-0.041,-0.076 -0.081,-0.15 -0.12,-0.223c-1.117,-2.07 -2.967,-5.5 -0.747,-9.159c2.277,-3.753 6.287,-3.753 9.508,-3.753c0.923,0 2.01,0.016 3.292,0.035c1.795,0.026 3.987,0.059 6.651,0.061c2.326,-1.975 5.506,-1.975 8.162,-1.975c0.917,0 1.989,0.014 3.248,0.031c1.801,0.024 3.991,0.054 6.646,0.054c2.571,0 4.925,1.299 6.297,3.475c1.373,2.178 1.529,4.862 0.418,7.183c-0.323,0.677 -0.596,1.207 -0.826,1.652c1.229,-0.31 2.332,-0.31 2.967,-0.31c0.738,0 1.596,0.041 2.595,0.091c1.584,0.08 3.736,0.189 6.582,0.189c1.946,0 3.748,0.709 5.108,2.002c0.466,-0.059 0.945,-0.093 1.431,-0.093c3.248,0 5.402,2.008 7.25,4.802c4.034,6.139 6.308,8.373 6.918,9.178c0.704,0.929 1.764,2.932 1.764,5.081c0,2.441 -0.147,3.97 -0.188,5.809c-0.262,11.836 -0.994,17.895 -14.049,20.664c0.043,0.633 0.089,1.305 0.137,2.018c0.132,2.064 -0.597,4.097 -1.999,5.592c-0.358,0.38 -0.755,0.72 -1.183,1.014c0.009,0.143 0.017,0.282 0.025,0.419c0.478,7.903 0.669,11.087 -3.399,13.178c-0.119,1.185 -1.025,9.319 -1.025,9.319c-0.382,3.793 -3.511,6.658 -7.3,6.708c-0.104,0.003 -0.192,0.005 -0.28,0.005z" fill="#000000" stroke="none" stroke-width="1" stroke-linecap="butt" stroke-linejoin="miter" opacity="0.35"></path><path d="M63.714,98.024c-2.094,0 -5.812,-0.834 -7.189,-6.418c-0.418,-1.696 -0.979,-3.769 -2.099,-9.89c-0.616,-3.368 -1.387,-7.583 -2.38,-12.929c-2.469,0.003 -4.524,0.032 -6.223,0.055c-1.302,0.018 -2.372,0.032 -3.288,0.032c-3.285,0 -7.374,0 -9.645,-3.782c-0.016,-0.027 -0.031,-0.053 -0.047,-0.08c-1.959,0.01 -3.632,0.034 -5.052,0.055c-1.284,0.019 -2.37,0.034 -3.294,0.034c-3.235,0 -7.262,0 -9.539,-3.757c-2.218,-3.659 -0.369,-7.082 0.736,-9.126c0.05,-0.092 0.101,-0.186 0.152,-0.282c0.04,-4.32 0.041,-6.098 0.038,-7.461c-1.032,-0.781 -2.998,-1.905 -4.156,-2.567c-1.052,-0.601 -2.239,-1.28 -3.383,-1.995c-5.055,-2.819 -4.797,-8.838 -4.712,-10.833c0.008,-0.185 0.017,-0.337 0.017,-0.465c0,-6.745 9.792,-9.751 12.182,-10.381c0,-1.03 0,-2.114 -0.001,-3.257c-0.041,-0.076 -0.081,-0.15 -0.12,-0.223c-1.117,-2.07 -2.967,-5.5 -0.747,-9.159c2.277,-3.753 6.287,-3.753 9.508,-3.753c0.923,0 2.01,0.016 3.292,0.035c1.795,0.026 3.987,0.059 6.651,0.061c2.326,-1.975 5.506,-1.975 8.162,-1.975c0.917,0 1.989,0.014 3.248,0.031c1.801,0.024 3.991,0.054 6.646,0.054c2.571,0 4.925,1.299 6.297,3.475c1.373,2.178 1.529,4.862 0.418,7.183c-0.323,0.677 -0.596,1.207 -0.826,1.652c1.229,-0.31 2.332,-0.31 2.967,-0.31c0.738,0 1.596,0.041 2.595,0.091c1.584,0.08 3.736,0.189 6.582,0.189c1.946,0 3.748,0.709 5.108,2.002c0.466,-0.059 0.945,-0.093 1.431,-0.093c3.248,0 6.055,1.538 7.903,4.332c4.034,6.139 5.655,8.276 6.266,9.081c0.704,0.929 1.883,2.483 1.764,5.081c-0.101,2.439 -0.147,4.537 -0.188,6.376c-0.262,11.836 -0.994,17.895 -14.049,20.664c0.043,0.633 0.089,1.305 0.137,2.018c0.132,2.064 -0.597,4.097 -1.999,5.592c-0.358,0.38 -0.755,0.72 -1.183,1.014c0.009,0.143 0.017,0.282 0.025,0.419c0.478,7.903 0.669,11.087 -3.399,13.178c-0.119,1.185 -1.025,9.319 -1.025,9.319c-0.382,3.793 -3.511,6.658 -7.3,6.708c-0.105,0.003 -0.193,0.005 -0.281,0.005z" fill="#f2f2f2" stroke="none" stroke-width="1" stroke-linecap="butt" stroke-linejoin="miter"></path><path d="M63.897,91.519c-0.452,0 -0.843,-0.322 -0.927,-0.771l-5.669,-29.232c-0.077,-0.407 0.121,-0.816 0.487,-1.009c0.139,-0.074 0.29,-0.11 0.44,-0.11c0.244,0 0.487,0.096 0.668,0.277l0.831,0.829l-2.434,-17.033c-0.058,-0.402 0.15,-0.797 0.512,-0.979c0.134,-0.066 0.279,-0.099 0.422,-0.099c0.244,0 0.487,0.096 0.668,0.277l1.998,1.998l-1.094,-16.183h-0.036c-2.303,0 -4.039,0.12 -8.15,1.729v26.127l1.79,3.579c0.147,0.293 0.131,0.64 -0.041,0.919c-0.173,0.277 -0.476,0.448 -0.804,0.448h-13.224c-0.329,0 -0.634,-0.17 -0.807,-0.452c-0.172,-0.281 -0.184,-0.63 -0.035,-0.924l1.787,-3.491v-20.239c-2.006,1.289 -4.517,2.567 -6.613,3.168v13.214l1.79,3.579c0.147,0.293 0.131,0.64 -0.041,0.919c-0.173,0.277 -0.476,0.448 -0.804,0.448h-13.226c-0.328,0 -0.63,-0.17 -0.804,-0.448c-0.173,-0.279 -0.188,-0.626 -0.041,-0.919l1.792,-3.584l0.134,-13.493c-2.025,-0.911 -4.99,-2.645 -6.53,-3.619c-0.769,-0.487 -4.771,0.24 -5.473,-3.492l0.271,-5.65c0,-0.397 7.351,-1.923 7.521,-1.781c0.216,0.18 -1.105,5.783 -1.423,6.054c-0.098,0.084 -0.106,0.184 -0.102,0.24c0.003,0.063 0.027,0.151 0.125,0.216l0.235,0.159c1.023,0.638 2.634,1.319 4.055,1.921c0.416,0.177 0.818,0.347 1.188,0.509v-21.238l-1.79,-3.579c-0.147,-0.293 -0.131,-0.64 0.041,-0.919c0.17,-0.277 0.474,-0.448 0.802,-0.448h13.226c0.328,0 0.63,0.17 0.804,0.448c0.173,0.279 0.188,0.626 0.041,0.919l-1.79,3.579v20.919c1.775,-1.007 5.004,-2.991 6.613,-4.194v-18.615l-1.79,-3.579c-0.147,-0.293 -0.131,-0.64 0.041,-0.919c0.173,-0.277 0.476,-0.448 0.804,-0.448h13.141c0.325,0 0.626,0.167 0.799,0.441c0.173,0.274 0.194,0.618 0.054,0.911l-1.713,3.586v14.136c1.56,-0.411 4.399,-1.023 7.419,-1.023c0.101,0 0.202,0 0.303,0.002l0.038,-4.595c-0.009,-0.255 -0.116,-0.704 0.063,-0.888c0.178,-0.184 0.424,-0.288 0.679,-0.288h10.393c0.522,0 0.944,0.424 0.944,0.944v2.501c1.535,-0.468 3.447,-1.042 4.728,-1.422c0.274,-0.082 0.56,-0.125 0.845,-0.125c0.982,0 1.893,0.495 2.435,1.325l0.068,0.102c1.196,1.82 4.839,7.357 6.746,9.712c0.145,0.178 0.217,0.405 0.21,0.634c-0.041,0.99 -0.079,2.153 -0.121,3.396c-0.139,4.188 -0.31,9.4 -0.72,12.016c-0.03,0.189 -0.381,1.727 -0.381,1.727c-0.039,0.173 -0.128,0.331 -0.254,0.457c-1.437,1.437 -2.512,1.871 -4.459,2.457c-1.091,0.364 -3.376,0.925 -4.766,1.168c-0.11,0.02 -0.222,0.03 -0.336,0.03v0c-0.534,0 -1.083,-0.227 -1.431,-0.594c-0.492,-0.577 -1.084,-1.136 -1.712,-1.726c-0.224,-0.211 -0.451,-0.426 -0.676,-0.643l0.768,11.434c0.025,0.392 -0.194,0.761 -0.553,0.924c-0.126,0.057 -0.258,0.084 -0.391,0.084c-0.246,0 -0.487,-0.096 -0.668,-0.277l-2.03,-2.03l0.803,14.537c0.022,0.391 -0.199,0.755 -0.558,0.916c-0.125,0.055 -0.255,0.082 -0.386,0.082c-0.246,0 -0.487,-0.096 -0.668,-0.277l-1.425,-1.425l-1.691,15.911c-0.047,0.468 -0.43,0.829 -0.9,0.85c-0.008,0.002 -0.021,0.002 -0.035,0.002zM71.456,45.327c0.692,0.676 2.315,1.762 3.704,2.542c0.202,-0.306 0.426,-0.697 0.504,-0.878c4.334,-1.126 4.334,-6.153 4.334,-7.583c0,-5.163 -1.437,-10.229 -4.341,-12.786c-0.009,-0.044 -0.016,-0.09 -0.019,-0.136c-0.785,0.113 -2.782,0.408 -4.184,0.671l0.002,18.17z" fill="#ffc571" stroke="none" stroke-width="1" stroke-linecap="butt" stroke-linejoin="miter"></path><path d="M20.911,8.908l6.613,4.253l7.559,-4.253z" fill="#ffe385" stroke="none" stroke-width="1" stroke-linecap="butt" stroke-linejoin="miter"></path><path d="M20.911,58.036l6.613,-4.252l7.559,4.252z" fill="#fbb97f" stroke="none" stroke-width="1" stroke-linecap="butt" stroke-linejoin="miter"></path><path d="M38.861,61.958l6.613,-4.253l7.559,4.253z" fill="#fbb97f" stroke="none" stroke-width="1" stroke-linecap="butt" stroke-linejoin="miter"></path><path d="M38.53,7.164l6.944,4.107l8.136,-4.276z" fill="#ffe385" stroke="none" stroke-width="1" stroke-linecap="butt" stroke-linejoin="miter"></path><path d="M59.646,19.301l5.67,4.252l5.667,-4.252z" fill="#ffe385" stroke="none" stroke-width="1" stroke-linecap="butt" stroke-linejoin="miter"></path><path d="M22.307,40.025v13.288l-1.396,4.723l6.613,-4.252v-40.623l-6.613,-4.253l1.396,4.653v20.856l1.523,-0.516l0.066,9.335z" fill="#ef8630" stroke="none" stroke-width="1" stroke-linecap="butt" stroke-linejoin="miter"></path><path d="M38.53,6.995l6.944,4.276v46.293l-6.613,4.252l2.363,-4.252v-19.895l0.659,0.817l-0.124,-9.154l-0.535,0.42v-18.481z" fill="#ef8630" stroke="none" stroke-width="1" stroke-linecap="butt" stroke-linejoin="miter"></path><path d="M63.897,91.047l-1.417,-23.564l2.836,2.836l-1.89,-19.841l2.834,2.835l-0.944,-29.76l-4.969,-4.054l1.65,22.055l-4.4,1.921l2.464,17.728l-2.208,-0.423z" fill="#ef8630" stroke="none" stroke-width="1" stroke-linecap="butt" stroke-linejoin="miter"></path><path d="M63.897,91.519c-1.202,0 -0.555,2.212 -6.596,-30.003c-0.112,-0.591 0.351,-1.119 0.927,-1.119c0.492,0 0.634,0.243 1.499,1.106c-2.602,-18.212 -2.782,-17.583 -1.921,-18.013c2.696,-1.332 3.694,11.128 1.995,-14.007c-2.439,0 -4.158,0.152 -8.186,1.729c0,30.341 -0.597,24.933 1.79,29.706c0.314,0.629 -0.145,1.366 -0.845,1.366c-16.71,0 -15.365,1.158 -12.281,-4.867c0,-26.685 2.088,-19.563 -6.613,-17.071c0,15.418 -0.594,12.027 1.79,16.793c0.314,0.629 -0.145,1.366 -0.845,1.366c-16.741,0 -15.352,1.195 -12.279,-4.95c0.072,-7.234 0.052,-8.501 0.052,-10.458c0,-3.348 -6.032,-5.814 -10.765,-8.808c-1.957,-0.979 -1.468,-4.256 -1.468,-5.677c0,-1.442 6.335,-3.929 7.34,-4.11c1.02,-0.198 2.007,2.014 0.979,2.936c-2.622,2.359 -3.475,4.066 2.675,6.671c0.796,0.338 1.24,0.18 1.207,0.18c0,-2.019 -0.019,-8.105 -0.019,-20.908c-3.077,-6.151 -4.432,-4.946 12.279,-4.946c0.692,0 1.163,0.73 0.845,1.366c-2.387,4.772 -1.79,0.193 -1.79,24.499c1.775,-1.007 5.004,-2.991 6.613,-4.194v-18.613c-3.047,-6.091 -4.476,-4.946 12.196,-4.946c0.69,0 1.153,0.724 0.853,1.352c-2.288,4.788 -1.713,1.248 -1.713,17.721c2.436,-0.642 5.122,-1.061 7.611,-1.022c-0.104,-3.034 -0.426,-4.745 0.05,-5.485c0.702,-1.092 3.205,-0.286 11.233,-0.286c1.264,0 0.944,1.519 0.944,3.445c3.483,-1.062 6.311,-2.786 8.076,-0.118c7.181,10.928 6.981,9.593 6.955,10.345c-0.709,17.123 1.23,19.139 -10.702,21.222c-4.448,0.826 -4.707,-11.162 -3.387,8.501c0.035,0.544 -0.393,1.007 -0.944,1.007c-0.546,0 -0.605,-0.214 -2.698,-2.307c0.859,15.474 1.091,15.075 0.249,15.452c-3.055,1.354 -1.582,-11.589 -4.17,14.291c-0.051,0.498 -0.474,0.854 -0.936,0.854z" fill="none" stroke="#40396e" stroke-width="3" stroke-linecap="round" stroke-linejoin="round"></path><path d="M75.639,27.486c0,0 -2.782,0.408 -4.185,0.671l0.002,16.169c0.692,0.676 2.315,1.762 3.704,2.542c0,0 2.947,-0.936 3.272,-2.114c0.503,-1.822 0.944,-11.226 0.944,-11.226z" fill="none" stroke="#40396e" stroke-width="3" stroke-linecap="round" stroke-linejoin="round"></path></g></g></svg>