<svg xmlns="http://www.w3.org/2000/svg" xmlns:xlink="http://www.w3.org/1999/xlink" viewBox="0,0,256,256" width="25px" height="25px" fill-rule="nonzero"><g fill="none" fill-rule="nonzero" stroke="none" stroke-width="1" stroke-linecap="butt" stroke-linejoin="miter" stroke-miterlimit="10" stroke-dasharray="" stroke-dashoffset="0" font-family="none" font-weight="none" font-size="none" text-anchor="none" style="mix-blend-mode: normal"><g transform="scale(5.33333,5.33333)"><path d="M10,0l6,5l-2,8l18,-3l-8,-8z" fill="#455a64"></path><ellipse cx="21.02609" cy="18.45158" transform="rotate(-10.014)" rx="19.232" ry="4.5" fill="#263238"></ellipse><path d="M14.01,16.323c0.103,3.989 2.115,9.677 5.756,9.677h8.463c3.74,0 5.771,-6.003 5.771,-10v-1c0,-0.675 -0.025,-1.349 -0.102,-2.005c-10.297,-0.769 -17.408,2.115 -19.888,3.328z" fill="#78909c"></path><path d="M34,22c0,1.105 -0.896,2 -2,2c-1.106,0 -2,-0.895 -2,-2c0,-1.105 0.894,-2 2,-2c1.104,0 2,0.895 2,2" fill="#f1b255"></path><path d="M18,22c0,-1.105 -0.896,-2 -2,-2c-1.106,0 -2,0.895 -2,2c0,1.105 0.894,2 2,2c1.104,0 2,-0.895 2,-2" fill="#f1b255"></path><path d="M24,38c-5,0 -5,-6 -5,-6v-6h10v6c0,0 0,6 -5,6z" fill="#ebb461"></path><path d="M23.998,24c-2.209,0 -4,1.791 -4,4c0,2.209 1.791,4 4,4c2.209,0 4,-1.791 4,-4c0,-2.209 -1.791,-4 -4,-4z" fill="#fbbe65"></path><path d="M32,18l-0.888,-0.815l-3.558,-3.264l-11.554,4.079l-0.006,2v2c0,4.971 3.583,9 8.003,9c4.42,0 8.003,-4.029 8.003,-9v-2z" fill="#fbbe65"></path><path d="M29,32v0l-5,12l-5,-12c0,0 -11,1.986 -11,13h32c0,-10.975 -11,-13 -11,-13" fill="#1b5e20"></path><ellipse cx="20" cy="21.5" rx="2.5" ry="2" fill="#e0e0e0"></ellipse><path d="M20,23.947c-1.625,0 -2.947,-1.098 -2.947,-2.447c0,-1.349 1.322,-2.447 2.947,-2.447c1.625,0 2.947,1.098 2.947,2.447c0,1.349 -1.322,2.447 -2.947,2.447zM20,19.947c-1.132,0 -2.053,0.696 -2.053,1.553c0,0.857 0.921,1.553 2.053,1.553c1.132,0 2.053,-0.696 2.053,-1.553c0,-0.857 -0.921,-1.553 -2.053,-1.553z" fill="#455a64"></path><ellipse cx="28" cy="21.5" rx="2.5" ry="2" fill="#e0e0e0"></ellipse><path d="M28,23.947c-1.625,0 -2.947,-1.098 -2.947,-2.447c0,-1.349 1.322,-2.447 2.947,-2.447c1.625,0 2.947,1.098 2.947,2.447c0,1.349 -1.322,2.447 -2.947,2.447zM28,19.947c-1.132,0 -2.053,0.696 -2.053,1.553c0,0.857 0.921,1.553 2.053,1.553c1.132,0 2.053,-0.696 2.053,-1.553c0,-0.857 -0.921,-1.553 -2.053,-1.553z" fill="#455a64"></path><g fill="#455a64"><rect x="22.5" y="21.053" width="3" height="0.895"></rect></g><g fill="#263238"><path d="M27.03,45l1.97,-13l-5,3l-5,-3l1.97,13z"></path></g></g></g></svg>