<?xml version="1.0" standalone="no"?>
<!DOCTYPE svg PUBLIC "-//W3C//DTD SVG 20010904//EN"
 "http://www.w3.org/TR/2001/REC-SVG-20010904/DTD/svg10.dtd">
<svg version="1.0" xmlns="http://www.w3.org/2000/svg"
 width="96.000000pt" height="96.000000pt" viewBox="0 0 96.000000 96.000000"
 preserveAspectRatio="xMidYMid meet">

<g transform="translate(0.000000,96.000000) scale(0.100000,-0.100000)"
fill="#ffffff" stroke="none">
<path d="M30 928 c-24 -40 -35 -89 -26 -126 4 -15 6 -36 5 -47 -9 -81 -3 -123
22 -156 14 -19 29 -49 32 -68 4 -18 22 -51 40 -72 17 -21 42 -51 53 -66 12
-16 49 -44 83 -63 56 -32 60 -37 54 -60 -5 -14 -8 -50 -7 -81 0 -68 28 -118
87 -157 34 -23 52 -27 107 -27 55 0 73 4 107 27 59 39 87 89 87 157 1 31 -2
67 -7 81 -6 23 -2 28 54 60 34 19 71 47 83 63 11 15 36 45 53 66 18 21 36 54
39 72 4 19 18 50 33 69 25 34 30 65 23 155 -1 11 1 40 4 65 4 35 0 55 -18 90
-31 60 -51 59 -58 -2 -8 -64 -32 -93 -120 -143 -120 -68 -140 -116 -99 -236
24 -70 22 -130 -6 -172 l-18 -27 -32 25 c-50 38 -115 52 -171 37 -25 -7 -61
-24 -79 -37 l-32 -25 -18 27 c-28 42 -30 109 -6 177 41 116 21 164 -99 231
-88 50 -112 79 -120 142 -6 57 -23 65 -50 21z m121 -178 c85 -47 129 -90 129
-127 0 -16 -9 -56 -21 -88 -15 -42 -20 -76 -17 -112 3 -29 3 -53 1 -53 -9 0
-83 74 -83 84 0 6 -14 24 -30 39 -21 20 -30 38 -30 59 0 20 -11 43 -31 66 -28
32 -31 39 -25 81 9 58 9 66 1 121 l-7 45 25 -40 c18 -28 46 -52 88 -75z m760
39 c-7 -19 -7 -38 -1 -55 18 -46 11 -82 -20 -117 -19 -22 -30 -46 -30 -65 0
-21 -9 -39 -30 -59 -16 -15 -30 -33 -30 -39 0 -11 -74 -84 -84 -84 -3 0 -2 24
1 53 4 38 0 68 -16 112 -12 32 -21 72 -21 88 0 37 44 80 129 127 43 24 70 46
85 72 18 32 22 35 24 17 2 -11 -1 -34 -7 -50z m-368 -443 c103 -43 128 -177
48 -257 -112 -113 -296 -12 -267 146 18 94 128 150 219 111z"/>
<path d="M365 210 c-24 -38 41 -121 97 -123 43 -2 45 24 2 35 -36 9 -52 26
-63 64 -8 30 -25 42 -36 24z"/>
</g>
</svg>
